<svg width="24" height="23" viewBox="0 0 24 23" fill="none" xmlns="http://www.w3.org/2000/svg">
<g clip-path="url(#clip0_79_74)">
<path d="M23.7068 21.0318L17.7378 15.4007C19.3644 13.5239 20.1642 11.129 19.9716 8.71156C19.7791 6.29408 18.609 4.03889 16.7034 2.41247C14.7977 0.786043 12.3024 -0.0871818 9.73342 -0.0265857C7.16447 0.0340103 4.71849 1.02379 2.9014 2.73803C1.08431 4.45226 0.0351379 6.7598 -0.029094 9.18334C-0.0933258 11.6069 0.832293 13.961 2.5563 15.7588C4.28031 17.5565 6.67081 18.6604 9.23334 18.842C11.7959 19.0237 14.3344 18.2692 16.3238 16.7346L22.2928 22.3658C22.4814 22.5376 22.734 22.6327 22.9962 22.6305C23.2584 22.6284 23.5092 22.5292 23.6946 22.3543C23.88 22.1793 23.9852 21.9427 23.9875 21.6954C23.9897 21.448 23.8889 21.2097 23.7068 21.0318ZM9.99978 16.9818C8.41753 16.9818 6.87081 16.5392 5.55522 15.7099C4.23963 14.8806 3.21425 13.7019 2.60875 12.3228C2.00324 10.9437 1.84482 9.42625 2.1535 7.96224C2.46218 6.49823 3.22411 5.15345 4.34293 4.09796C5.46175 3.04247 6.88721 2.32367 8.43906 2.03246C9.99091 1.74126 11.5994 1.89071 13.0613 2.46194C14.5231 3.03317 15.7725 4.00051 16.6515 5.24163C17.5306 6.48276 17.9998 7.94193 17.9998 9.43462C17.9974 11.4356 17.1538 13.3539 15.654 14.7688C14.1542 16.1837 12.1208 16.9795 9.99978 16.9818Z" fill="#808080"/>
</g>
<defs>
<clipPath id="clip0_79_74">
<rect width="24" height="22.6415" fill="white"/>
</clipPath>
</defs>
</svg>
